# xmcd
#
# Track frame offsets:
# 150
# 21940
# 39793
# 57405
# 83543
# 102235
# 122385
# 143970
# 164177
# 183040
# 203706
#
# Disc length: 3017 seconds
#
#
# Revision: 0
# Processed by: cddbd v1.5.1PL2 Copyright (c) Steve Scherf et al.
# Submitted via: FreeRIP 2.945 
#
DISCID=890bc70b
DTITLE=嚴詠能 - 好命去七逃
DYEAR=2005
DGENRE=Country
TTITLE0=Africa Go Go
TTITLE1=坐著彼班駛向思念的公車
TTITLE2=隨著風
TTITLE3=地球的孩子
TTITLE4=好命
TTITLE5=茉莉花的熱天
TTITLE6=2點50分
TTITLE7=唉喲喂呀
TTITLE8=提批
TTITLE9=平安
TTITLE10=愈來愈遠
EXTD=
EXTT0=
EXTT1=
EXTT2=
EXTT3=
EXTT4=
EXTT5=
EXTT6=
EXTT7=
EXTT8=
EXTT9=
EXTT10=
PLAYORDER=
